# xmcd CD database file
#
# Track frame offsets:
#	150
#	11933
#	27793
#	42340
#	54053
#	71325
#	89225
#	102605
#	117863
#	130575
#	140628
#
# Disc length: 2077 seconds
#
# Revision: 1
# Processed by: cddbd v1.4PL0 Copyright (c) Steve Scherf et al.
# Submitted via: CDex 1.40Release
#
DISCID=97081b0b
DTITLE=Danny Roy - Blame Me
DYEAR=1900
DGENRE=Country
TTITLE0=Blame me
TTITLE1=I'd wish myself back home
TTITLE2=Thanks, but no thanks
TTITLE3=I'm not takin'  any chance to hurt again
TTITLE4=Say you do
TTITLE5=Behind her smile
TTITLE6=Throwing in the towel
TTITLE7=Reminiscing
TTITLE8=Someone new to take your place
TTITLE9=I won't stop loving you
TTITLE10=Turn me off
EXTD=ID3G: 2
EXTT0=
EXTT1=
EXTT2=
EXTT3=
EXTT4=
EXTT5=
EXTT6=
EXTT7=
EXTT8=
EXTT9=
EXTT10=
PLAYORDER=
